<?xml version="1.0" encoding="utf-8"?>
<!-- Generator: Adobe Illustrator 27.1.1, SVG Export Plug-In . SVG Version: 6.00 Build 0)  -->
<svg version="1.1" id="Layer_1" xmlns="http://www.w3.org/2000/svg" xmlns:xlink="http://www.w3.org/1999/xlink" x="0px" y="0px"
	 viewBox="0 0 128 40" style="enable-background:new 0 0 128 40;" xml:space="preserve">
<style type="text/css">
	.st0{fill:#FFFFFF;}
</style>
<g>
	<path d="M6.6,35.8L6.6,35.8c0-0.5-0.1-0.9-0.2-1.3c-0.2-0.4-0.4-0.7-0.7-1c-0.3-0.3-0.6-0.5-1.1-0.7c-0.4-0.2-0.9-0.2-1.3-0.2H0.8
		V39h2.5c0.5,0,0.9-0.1,1.3-0.2c0.4-0.2,0.8-0.4,1.1-0.7c0.3-0.3,0.5-0.6,0.7-1C6.5,36.7,6.6,36.3,6.6,35.8z M5.1,35.9
		c0,0.3,0,0.5-0.1,0.8c-0.1,0.2-0.2,0.4-0.4,0.6c-0.2,0.2-0.4,0.3-0.6,0.4s-0.5,0.1-0.8,0.1H2.1V34h1.1c0.3,0,0.5,0,0.8,0.1
		c0.2,0.1,0.4,0.2,0.6,0.4c0.2,0.2,0.3,0.4,0.4,0.6C5.1,35.3,5.1,35.6,5.1,35.9L5.1,35.9z"/>
	<path d="M12.8,39v-1.2H9.4v-1.3h3v-1.2h-3v-1.3h3.4v-1.2H8V39H12.8z"/>
	<path d="M22.4,35.8c0-0.5-0.1-0.9-0.2-1.3s-0.3-0.7-0.6-1c-0.2-0.3-0.5-0.5-0.9-0.7c-0.3-0.2-0.7-0.3-1.1-0.3s-0.8,0.1-1.2,0.3
		c-0.3,0.2-0.6,0.4-0.9,0.7s-0.4,0.6-0.6,1c-0.1,0.4-0.2,0.8-0.2,1.3c0,0.5,0.1,0.9,0.2,1.3c0.1,0.4,0.3,0.7,0.6,1
		c0.2,0.3,0.5,0.5,0.9,0.7c0.3,0.2,0.7,0.2,1.2,0.2s0.8-0.1,1.1-0.3c0.3-0.2,0.6-0.4,0.9-0.7c0.2-0.3,0.4-0.6,0.6-1
		C22.3,36.7,22.4,36.3,22.4,35.8z M21,35.9c0,0.3,0,0.6-0.1,0.8c-0.1,0.2-0.1,0.4-0.3,0.6c-0.1,0.2-0.3,0.3-0.4,0.4
		c-0.2,0.1-0.4,0.1-0.6,0.1c-0.2,0-0.4-0.1-0.6-0.2c-0.2-0.1-0.3-0.2-0.4-0.4c-0.1-0.2-0.2-0.4-0.3-0.6s-0.1-0.5-0.1-0.8
		c0-0.3,0-0.6,0.1-0.8c0.1-0.2,0.2-0.5,0.3-0.6c0.1-0.2,0.3-0.3,0.4-0.4c0.2-0.1,0.4-0.2,0.6-0.2c0.2,0,0.4,0.1,0.6,0.2
		c0.2,0.1,0.3,0.2,0.4,0.4c0.1,0.2,0.2,0.4,0.3,0.6C20.9,35.3,21,35.6,21,35.9z"/>
	<path d="M23.3,33.2l0.3,1.1l1.1-0.3V39H26v-6.3h-0.9L23.3,33.2z"/>
	<path d="M36.8,39l-2.7-6.3h-1.3L30.1,39h1.4l0.6-1.4h2.7l0.6,1.4H36.8z M34.3,36.4h-1.7l0.8-2L34.3,36.4z"/>
	<path d="M46.2,35.8c0-0.5-0.1-0.9-0.2-1.3s-0.3-0.7-0.6-1c-0.2-0.3-0.5-0.5-0.9-0.7c-0.3-0.2-0.7-0.3-1.1-0.3
		c-0.4,0-0.8,0.1-1.2,0.3c-0.3,0.2-0.6,0.4-0.9,0.7c-0.2,0.3-0.4,0.6-0.6,1c-0.1,0.4-0.2,0.8-0.2,1.3c0,0.5,0.1,0.9,0.2,1.3
		c0.1,0.4,0.3,0.7,0.6,1c0.2,0.3,0.5,0.5,0.9,0.7c0.3,0.2,0.7,0.2,1.2,0.2c0.4,0,0.8-0.1,1.1-0.3c0.3-0.2,0.6-0.4,0.9-0.7
		c0.2-0.3,0.4-0.6,0.6-1C46.1,36.7,46.2,36.3,46.2,35.8z M44.7,35.9c0,0.3,0,0.6-0.1,0.8c-0.1,0.2-0.1,0.4-0.3,0.6
		c-0.1,0.2-0.3,0.3-0.4,0.4c-0.2,0.1-0.4,0.1-0.6,0.1c-0.2,0-0.4-0.1-0.6-0.2c-0.2-0.1-0.3-0.2-0.4-0.4c-0.1-0.2-0.2-0.4-0.3-0.6
		C42,36.4,42,36.1,42,35.8c0-0.3,0-0.6,0.1-0.8c0.1-0.2,0.2-0.5,0.3-0.6c0.1-0.2,0.3-0.3,0.4-0.4c0.2-0.1,0.4-0.2,0.6-0.2
		s0.4,0.1,0.6,0.2c0.2,0.1,0.3,0.2,0.4,0.4s0.2,0.4,0.3,0.6C44.7,35.3,44.7,35.6,44.7,35.9z"/>
	<path d="M50.6,32.7l-3.5,4l0.2,1h3.1V39h1.3v-1.4h0.8v-1.1h-0.8v-3.9H50.6z M50.4,36.5h-1.7l1.7-2V36.5z"/>
	<path d="M62.7,35.8L62.7,35.8c0-0.5-0.1-0.9-0.2-1.3c-0.2-0.4-0.4-0.7-0.7-1c-0.3-0.3-0.6-0.5-1.1-0.7c-0.4-0.2-0.9-0.2-1.4-0.2
		h-2.5V39h2.5c0.5,0,0.9-0.1,1.4-0.2c0.4-0.2,0.8-0.4,1.1-0.7c0.3-0.3,0.5-0.6,0.7-1C62.6,36.7,62.7,36.3,62.7,35.8z M61.2,35.9
		c0,0.3,0,0.5-0.1,0.8c-0.1,0.2-0.2,0.4-0.4,0.6c-0.2,0.2-0.4,0.3-0.6,0.4c-0.2,0.1-0.5,0.1-0.8,0.1h-1.1V34h1.1
		c0.3,0,0.5,0,0.8,0.1c0.2,0.1,0.4,0.2,0.6,0.4c0.2,0.2,0.3,0.4,0.4,0.6C61.2,35.3,61.2,35.6,61.2,35.9L61.2,35.9z"/>
	<path d="M68.9,39v-1.2h-3.4v-1.3h3v-1.2h-3v-1.3h3.4v-1.2h-4.8V39H68.9z"/>
	<path d="M79,35.8L79,35.8c0-0.5-0.1-0.9-0.2-1.3c-0.2-0.4-0.4-0.7-0.7-1c-0.3-0.3-0.6-0.5-1.1-0.7c-0.4-0.2-0.9-0.2-1.4-0.2h-2.5
		V39h2.5c0.5,0,0.9-0.1,1.4-0.2c0.4-0.2,0.8-0.4,1.1-0.7c0.3-0.3,0.5-0.6,0.7-1S79,36.3,79,35.8z M77.5,35.9c0,0.3,0,0.5-0.1,0.8
		c-0.1,0.2-0.2,0.4-0.4,0.6c-0.2,0.2-0.4,0.3-0.6,0.4s-0.5,0.1-0.8,0.1h-1.1V34h1.1c0.3,0,0.5,0,0.8,0.1c0.2,0.1,0.4,0.2,0.6,0.4
		c0.2,0.2,0.3,0.4,0.4,0.6C77.5,35.3,77.5,35.6,77.5,35.9L77.5,35.9z"/>
	<path d="M85.2,39v-1.2h-3.4v-1.3h3v-1.2h-3v-1.3h3.4v-1.2h-4.8V39H85.2z"/>
	<path d="M91.7,39v-1.2h-3.5l3.5-4v-1.1h-5.1v1.2h3.4l-3.5,4V39H91.7z"/>
	<path d="M97.9,39v-1.2h-3.4v-1.3h3v-1.2h-3v-1.3h3.4v-1.2h-4.8V39H97.9z"/>
	<path d="M105.7,39v-6.3h-1.5l-1.7,2.7l-1.7-2.7h-1.5V39h1.4v-4.1l1.8,2.7h0l1.8-2.7V39H105.7z"/>
	<path d="M112.7,37.3L112.7,37.3c0-0.4-0.1-0.8-0.3-1c-0.2-0.2-0.5-0.4-0.9-0.6c0.1-0.1,0.2-0.1,0.3-0.2c0.1-0.1,0.2-0.2,0.3-0.3
		c0.1-0.1,0.1-0.2,0.2-0.4c0-0.1,0.1-0.3,0.1-0.5v0c0-0.5-0.2-0.9-0.6-1.2c-0.4-0.3-0.9-0.4-1.5-0.4h-2.9V39h3c0.4,0,0.7,0,1-0.1
		c0.3-0.1,0.5-0.2,0.7-0.3c0.2-0.1,0.4-0.3,0.5-0.5C112.6,37.8,112.7,37.6,112.7,37.3z M111,34.6c0,0.2-0.1,0.4-0.3,0.5
		c-0.2,0.1-0.4,0.2-0.7,0.2h-1.3v-1.3h1.4c0.3,0,0.5,0.1,0.7,0.2C110.9,34.2,111,34.4,111,34.6L111,34.6z M111.3,37.1
		c0,0.2-0.1,0.4-0.3,0.5c-0.2,0.1-0.4,0.2-0.7,0.2h-1.6v-1.4h1.6c0.4,0,0.6,0.1,0.8,0.2C111.2,36.7,111.3,36.9,111.3,37.1
		L111.3,37.1z"/>
	<path d="M119.5,39l-1.5-2.2c0.4-0.2,0.7-0.4,1-0.7c0.3-0.3,0.4-0.7,0.4-1.3v0c0-0.7-0.2-1.2-0.6-1.5c-0.4-0.4-1-0.5-1.7-0.5H114V39
		h1.4v-2h1.1l1.3,2H119.5z M117.9,34.9c0,0.3-0.1,0.5-0.3,0.6c-0.2,0.2-0.4,0.2-0.8,0.2h-1.4V34h1.4c0.3,0,0.6,0.1,0.8,0.2
		C117.8,34.3,117.9,34.6,117.9,34.9L117.9,34.9z"/>
	<path d="M127.1,35.8L127.1,35.8c0-0.5-0.1-0.9-0.3-1.3c-0.2-0.4-0.4-0.7-0.7-1c-0.3-0.3-0.6-0.5-1.1-0.7c-0.4-0.2-0.9-0.3-1.3-0.3
		s-0.9,0.1-1.3,0.3c-0.4,0.2-0.8,0.4-1.1,0.7c-0.3,0.3-0.5,0.6-0.7,1c-0.2,0.4-0.3,0.8-0.3,1.3v0c0,0.4,0.1,0.9,0.2,1.3
		c0.2,0.4,0.4,0.7,0.7,1c0.3,0.3,0.7,0.5,1.1,0.7c0.4,0.2,0.9,0.3,1.3,0.3s0.9-0.1,1.3-0.3c0.4-0.2,0.8-0.4,1.1-0.7
		c0.3-0.3,0.5-0.6,0.7-1C127,36.7,127.1,36.3,127.1,35.8z M125.7,35.9c0,0.3,0,0.5-0.1,0.8c-0.1,0.2-0.2,0.4-0.4,0.6
		c-0.2,0.2-0.4,0.3-0.6,0.4s-0.5,0.2-0.8,0.2c-0.3,0-0.5-0.1-0.8-0.2c-0.2-0.1-0.4-0.3-0.6-0.4c-0.2-0.2-0.3-0.4-0.4-0.6
		c-0.1-0.2-0.1-0.5-0.1-0.8v0c0-0.3,0-0.5,0.1-0.8c0.1-0.2,0.2-0.5,0.4-0.6c0.2-0.2,0.4-0.3,0.6-0.4c0.2-0.1,0.5-0.2,0.8-0.2
		c0.3,0,0.5,0.1,0.8,0.2c0.2,0.1,0.4,0.2,0.6,0.4c0.2,0.2,0.3,0.4,0.4,0.6C125.6,35.3,125.7,35.6,125.7,35.9L125.7,35.9z"/>
	<path d="M6.9,23h7.3v-4.8h6V28H1V0h19.3v10.2h-6v-5H6.9V23z"/>
	<path d="M28,23h7.3v-4.8h6V28H22.1V0h19.3v10.2h-6v-5H28V23z"/>
	<path d="M53.5,9.5L56.9,0h6.9L58,14.1L64.1,28h-7l-3.6-9.4L49.9,28h-7l6-13.9L43.1,0H50L53.5,9.5z"/>
	<path d="M71.7,20.5V28h-6V0h18.6v20.5L71.7,20.5z M78.4,5.2h-6.8v10.2h6.8V5.2z"/>
	<path class="st0" d="M100,20.1l0,3h-7.3v-2.5l13-7.9V3.1L103,0H87v8h5.7l0-2.8h7.3l0,5.2l-13,7.9V28h18.7h0v-7.9H100z"/>
	<path class="st0" d="M121.3,20.1l0,3H114v-2.5l13-7.9V3.1L124.3,0h-16v8h5.7l0-2.8h7.3l0,5.2l-13,7.9V28H127h0v-7.9H121.3z"/>
</g>
</svg>
